<svg t="1692166251543" class="icon" viewBox="0 0 1024 1024" version="1.1" xmlns="http://www.w3.org/2000/svg" p-id="7986"><path d="M534.698667 307.797333c5.674667 25.6 15.402667 49.621333 28.544 71.381334A352.725333 352.725333 0 0 0 512 375.466667a348.714667 348.714667 0 0 0-244.266667 99.413333L223.914667 422.272a416.725333 416.725333 0 0 1 310.784-114.474667z m396.245333 122.965334a238.933333 238.933333 0 1 0-337.706667-337.706667A428.842667 428.842667 0 0 0 512 85.333333C276.352 85.333333 85.333333 276.352 85.333333 512s191.018667 426.666667 426.666667 426.666667 426.666667-191.018667 426.666667-426.666667c0-27.776-2.645333-54.954667-7.722667-81.237333z m-240.512 123.093333l-44.074667 52.906667A178.773333 178.773333 0 0 0 512 546.133333a178.773333 178.773333 0 0 0-134.4 60.629334l-44.032-52.906667A246.741333 246.741333 0 0 1 512 477.866667c70.101333 0 133.418667 29.141333 178.432 75.989333z m-105.685333 126.848L512 768l-72.746667-87.296a85.290667 85.290667 0 0 1 145.493334 0zM768 426.666667a170.666667 170.666667 0 1 1 0-341.333334 170.666667 170.666667 0 0 1 0 341.333334z m-32.938667-263.04a33.066667 33.066667 0 1 1 65.877334 0l-9.258667 119.68a23.765333 23.765333 0 0 1-47.36 0l-9.258667-119.68z m62.208 190.848a29.44 29.44 0 0 1-29.354666 29.525333 29.44 29.44 0 0 1-29.354667-29.525333 29.44 29.44 0 0 1 29.354667-29.568c16.213333 0 29.354667 13.226667 29.354666 29.568z" fill="" fill-opacity=".4" p-id="7987"></path></svg>